<svg xmlns="http://www.w3.org/2000/svg" viewBox="0 0 380 96" width="380" height="96" role="img" aria-label="AmapEnLigne">
  
  <g transform="translate(4,8) scale(0.83)">
    <path d="M14 38 H82 L74 80 C73 84, 70 86, 66 86 H30 C26 86, 23 84, 22 80 Z" fill="#B7F397" stroke="#386A20" stroke-width="3" stroke-linejoin="round"></path>
    <line x1="30" y1="42" x2="32" y2="82" stroke="#386A20" stroke-width="2" stroke-linecap="round"></line>
    <line x1="42" y1="42" x2="43" y2="82" stroke="#386A20" stroke-width="2" stroke-linecap="round"></line>
    <line x1="54" y1="42" x2="53" y2="82" stroke="#386A20" stroke-width="2" stroke-linecap="round"></line>
    <line x1="66" y1="42" x2="64" y2="82" stroke="#386A20" stroke-width="2" stroke-linecap="round"></line>
    <line x1="20" y1="52" x2="76" y2="52" stroke="#386A20" stroke-width="2" stroke-linecap="round"></line>
    <line x1="22" y1="64" x2="74" y2="64" stroke="#386A20" stroke-width="2" stroke-linecap="round"></line>
    <line x1="24" y1="76" x2="72" y2="76" stroke="#386A20" stroke-width="2" stroke-linecap="round"></line>
    <path d="M22 38 C22 18, 74 18, 74 38" fill="none" stroke="#386A20" stroke-width="4" stroke-linecap="round"></path>
    <path d="M22 38 C18 30, 22 22, 28 20 C34 22, 36 30, 32 38 Z" fill="#5E2D6B"></path>
    <path d="M24 32 C24 28, 26 24, 30 24" stroke="#8E4FA0" stroke-width="1.5" stroke-linecap="round" fill="none"></path>
    <path d="M24 22 C22 18, 24 16, 28 18 L30 14 L32 18 C34 16, 36 18, 34 22 Z" fill="#386A20"></path>
    <path d="M28 18 V12" stroke="#386A20" stroke-width="1.5" stroke-linecap="round"></path>
    <path d="M40 30 L36 14 L39 20 L39 12 L42 20 L44 12 L45 20 L48 14 L44 30 Z" fill="#386A20"></path>
    <path d="M37 32 L47 32 L42 50 Z" fill="#E8721C"></path>
    <line x1="39" y1="38" x2="45" y2="38" stroke="#FFB74D" stroke-width="1.3" stroke-linecap="round"></line>
    <circle cx="64" cy="36" r="9" fill="#D84A3A"></circle>
    <path d="M64 28 V24" stroke="#386A20" stroke-width="2" stroke-linecap="round"></path>
    <path d="M64 28 C59 25, 56 27, 58 30 Z" fill="#386A20"></path>
    <path d="M64 28 C69 25, 72 27, 70 30 Z" fill="#386A20"></path>
    <ellipse cx="61" cy="34" rx="2" ry="1.4" fill="#fff" opacity="0.35"></ellipse>
  </g>
  
  <text x="96" y="60" font-family="Roboto, system-ui, sans-serif" font-size="32" font-weight="700" fill="#1A1C18">Amap</text>
  <text x="180" y="60" font-family="Roboto, system-ui, sans-serif" font-size="32" font-weight="400" fill="#43483E">En</text>
  <text x="215" y="60" font-family="Roboto, system-ui, sans-serif" font-size="32" font-weight="700" fill="#386A20">Ligne</text>
</svg>